# xmcd
#
# Track frame offsets:
#	150
#	12701
#	23816
#	36543
#	49597
#	59242
#	69189
#	82580
#	92656
#	102887
#	118408
#	130400
#	140572
#	151959
#	164537
#	176949
#	189026
#	201608
#	213261
#	226166
#	237367
#	250092
#	260829
#	271822
#	284972
#
# Disc length: 3937 seconds
#
# Revision: 0
# Processed by: cddbd v1.4PL0 Copyright (c) Steve Scherf et al.
# Submitted via: EasyCDDAExtractor 4.6.9.1
#
DISCID=7b0f5f19
DTITLE=Little Jimmy Dickens - Out Behind The Barn - Disc 4
DYEAR=2002
DGENRE=Country
TTITLE0=Half-Way Loved-1965
TTITLE1=Little Jack Daniel-1998
TTITLE2=Make Me An Offer-1965
TTITLE3=A Rose From The Brides Bouquet-1965
TTITLE4=When The Ship Hit The Sand-1966
TTITLE5=Where The Buffalo Trud-1968
TTITLE6=My Baby Takes Good Care Of Me-1998
TTITLE7=Jenny Needs A G-String For Her Old Guitar-1968
TTITLE8=Truck Load Of Starvin' Kangaroos-1966
TTITLE9=Possum Holler-1968
TTITLE10=Butter Beans-1998
TTITLE11=Where There's A Will-1968
TTITLE12=Who Licked The Red Off Your Candy-1968
TTITLE13=You Don't Have Time For Me-1998
TTITLE14=September Memories-1998
TTITLE15=Doggone It-1968
TTITLE16=Stop Your Eyes-1998
TTITLE17=I Just Had A Bar Of Soap-1968
TTITLE18=You've Destroyed Me-1966
TTITLE19=Big John, Don't Forget Your Hat-1968
TTITLE20=All Down Your Cheeks-1998
TTITLE21=Your Little Red Riding Hood (Will Be Black And Blue)-1968
TTITLE22=One Foot In The Grave-1998
TTITLE23=Country Music Lover-1968
TTITLE24=I've Been Busy-1998
EXTD=
EXTT0=
EXTT1=
EXTT2=
EXTT3=
EXTT4=
EXTT5=
EXTT6=
EXTT7=
EXTT8=
EXTT9=
EXTT10=
EXTT11=
EXTT12=
EXTT13=
EXTT14=
EXTT15=
EXTT16=
EXTT17=
EXTT18=
EXTT19=
EXTT20=
EXTT21=
EXTT22=
EXTT23=
EXTT24=
PLAYORDER=
